<svg width="24" height="24" viewBox="0 0 24 24" fill="none" xmlns="http://www.w3.org/2000/svg">
<path d="M21 8.2373C21 8.00515 20.9491 7.78736 20.8594 7.59277L20.0781 5.89648C19.8262 5.35009 19.2794 5.00017 18.6777 5H5.32227C4.72064 5.00017 4.17381 5.3501 3.92188 5.89648L3.14062 7.59277C3.0509 7.78736 3 8.00515 3 8.2373C3.00001 9.18223 3.60995 9.7793 4.37305 9.7793C5.22479 9.77921 5.91503 9.08907 5.91504 8.2373C5.91504 7.68509 6.36285 7.23742 6.91504 7.2373C7.46732 7.2373 7.91504 7.68502 7.91504 8.2373C7.91505 9.08912 8.60619 9.7793 9.45801 9.7793C10.3097 9.77909 11 9.089 11 8.2373C11 7.68502 11.4477 7.2373 12 7.2373C12.5523 7.2373 13 7.68502 13 8.2373C13 9.089 13.6903 9.77909 14.542 9.7793C15.3938 9.7793 16.085 9.08912 16.085 8.2373C16.085 7.68502 16.5327 7.2373 17.085 7.2373C17.6371 7.23742 18.085 7.68509 18.085 8.2373C18.085 9.08907 18.7752 9.77921 19.627 9.7793C20.3901 9.7793 21 9.18223 21 8.2373ZM23 8.2373C23 10.1006 21.6721 11.7793 19.627 11.7793C18.6289 11.7793 17.7278 11.3663 17.084 10.7021C16.4402 11.3659 15.5397 11.7793 14.542 11.7793C13.5445 11.7792 12.6437 11.3667 12 10.7031C11.3563 11.3667 10.4555 11.7792 9.45801 11.7793C8.46004 11.7793 7.55889 11.3662 6.91504 10.7021C6.27124 11.366 5.37085 11.7793 4.37305 11.7793C2.32793 11.7793 1.00001 10.1006 1 8.2373C1 7.71058 1.11573 7.20804 1.32422 6.75586L2.10547 5.05957L2.22168 4.83008C2.84138 3.70715 4.02628 3.00016 5.32227 3H18.6777C20.06 3.00017 21.316 3.80428 21.8945 5.05957L22.6758 6.75586L22.75 6.92773C22.9117 7.33402 23 7.77648 23 8.2373Z" fill="currentColor"/>
<path d="M2.69492 20.9495V10.635C2.69492 10.0827 3.14263 9.635 3.69492 9.635C4.2472 9.635 4.69492 10.0827 4.69492 10.635V20.9495C4.69475 21.5016 4.2471 21.9495 3.69492 21.9495C3.14273 21.9495 2.69508 21.5016 2.69492 20.9495Z" fill="currentColor"/>
<path d="M22 19.9492C22.5523 19.9492 23 20.3969 23 20.9492C23 21.5014 22.5523 21.9492 22 21.9492H2C1.44772 21.9492 1 21.5014 1 20.9492C1 20.3969 1.44772 19.9492 2 19.9492H22Z" fill="currentColor"/>
<path d="M19.3051 20.6106V10.635C19.3051 10.0827 19.7528 9.635 20.3051 9.635C20.8574 9.635 21.3051 10.0827 21.3051 10.635V20.6106C21.3049 21.1627 20.8572 21.6106 20.3051 21.6106C19.7529 21.6106 19.3053 21.1627 19.3051 20.6106Z" fill="currentColor"/>
<path d="M11.1697 20.9488V15.8648C11.1697 15.481 10.8582 15.1695 10.4744 15.1695H8.78006C8.39628 15.1695 8.08475 15.481 8.08475 15.8648V20.9488C8.08475 21.5011 7.63703 21.9488 7.08475 21.9488C6.53246 21.9488 6.08475 21.5011 6.08475 20.9488V15.8648C6.08475 14.3765 7.29171 13.1695 8.78006 13.1695H10.4744C11.9627 13.1695 13.1697 14.3765 13.1697 15.8648V20.9488C13.1697 21.501 12.7219 21.9487 12.1697 21.9488C11.6174 21.9488 11.1697 21.5011 11.1697 20.9488Z" fill="currentColor"/>
<path d="M17.0851 14.8644C17.6372 14.8646 18.0851 15.3123 18.0851 15.8644C18.0851 16.4166 17.6372 16.8642 17.0851 16.8644H15.3898C14.8375 16.8644 14.3898 16.4167 14.3898 15.8644C14.3898 15.3121 14.8375 14.8644 15.3898 14.8644H17.0851Z" fill="currentColor"/>
</svg>
