<svg width="24" height="24" viewBox="0 0 24 24" fill="none" xmlns="http://www.w3.org/2000/svg">
<path d="M14 18C14 17.7348 13.8946 17.4805 13.707 17.293C13.5195 17.1054 13.2652 17 13 17H11C10.7348 17 10.4805 17.1054 10.293 17.293C10.1054 17.4805 10 17.7348 10 18V21H14V18ZM7.73047 3.00488C7.63238 3.01454 7.53569 3.03822 7.44434 3.07617C7.32256 3.1268 7.21212 3.20139 7.11914 3.29492L4.41406 6H19.5859L16.8809 3.29492C16.7879 3.20139 16.6774 3.1268 16.5557 3.07617C16.4338 3.02556 16.3028 2.99991 16.1709 3H7.8291L7.73047 3.00488ZM21 8H3V10C3 10.2652 3.10543 10.5195 3.29297 10.707C3.47473 10.8888 3.71923 10.9918 3.97559 10.998C4.33229 10.9719 4.67222 10.8351 4.94629 10.6045L5.00391 10.5596C5.29368 10.3502 5.64248 10.2373 6 10.2373L6.13379 10.2422C6.39964 10.2632 6.65703 10.3466 6.88477 10.4854L6.99609 10.5596L7.05371 10.6045C7.32151 10.8298 7.65223 10.9656 8 10.9961C8.34777 10.9656 8.67849 10.8298 8.94629 10.6045L9.00391 10.5596C9.29368 10.3502 9.64248 10.2373 10 10.2373L10.1338 10.2422C10.3996 10.2632 10.657 10.3466 10.8848 10.4854L10.9961 10.5596L11.0537 10.6045C11.3215 10.8298 11.6522 10.9656 12 10.9961C12.3478 10.9656 12.6785 10.8298 12.9463 10.6045L13.0039 10.5596C13.2937 10.3502 13.6425 10.2373 14 10.2373L14.1338 10.2422C14.3996 10.2632 14.657 10.3466 14.8848 10.4854L14.9961 10.5596L15.0537 10.6045C15.3215 10.8298 15.6522 10.9656 16 10.9961C16.3478 10.9656 16.6785 10.8298 16.9463 10.6045L17.0039 10.5596C17.2937 10.3502 17.6425 10.2373 18 10.2373L18.1338 10.2422C18.3996 10.2632 18.657 10.3466 18.8848 10.4854L18.9961 10.5596L19.0537 10.6045C19.3275 10.8349 19.6671 10.9718 20.0234 10.998C20.2801 10.992 20.525 10.889 20.707 10.707C20.8946 10.5195 21 10.2652 21 10V8ZM16 21H18C18.2652 21 18.5195 20.8946 18.707 20.707C18.8946 20.5195 19 20.2652 19 20V12.8184C18.6443 12.7021 18.3067 12.5342 18 12.3154C17.4309 12.7215 16.7567 12.9594 16.0547 12.998C16.0182 13 15.9818 13 15.9453 12.998C15.2433 12.9594 14.5691 12.7215 14 12.3154C13.4309 12.7215 12.7567 12.9594 12.0547 12.998C12.0182 13 11.9818 13 11.9453 12.998C11.2433 12.9594 10.5691 12.7215 10 12.3154C9.4309 12.7215 8.75674 12.9594 8.05469 12.998C8.01824 13 7.98176 13 7.94531 12.998C7.24326 12.9594 6.5691 12.7215 6 12.3154C5.69332 12.5342 5.35568 12.7021 5 12.8184V20C5 20.2652 5.10543 20.5195 5.29297 20.707C5.48051 20.8946 5.73478 21 6 21H8V18C8 17.2043 8.3163 16.4415 8.87891 15.8789C9.44151 15.3163 10.2043 15 11 15H13C13.7957 15 14.5585 15.3163 15.1211 15.8789C15.6837 16.4415 16 17.2043 16 18V21ZM23 10C23 10.7957 22.6837 11.5585 22.1211 12.1211C21.802 12.4402 21.4174 12.6764 21 12.8242V20C21 20.7957 20.6837 21.5585 20.1211 22.1211C19.5585 22.6837 18.7957 23 18 23H6C5.20435 23 4.44152 22.6837 3.87891 22.1211C3.3163 21.5585 3 20.7957 3 20V12.8242C2.58261 12.6764 2.19797 12.4402 1.87891 12.1211C1.3163 11.5585 1 10.7956 1 10V7C1 6.73478 1.10543 6.4805 1.29297 6.29297L5.70312 1.88281C5.98174 1.60313 6.31315 1.38097 6.67773 1.22949C7.04297 1.0778 7.43459 1.00076 7.83008 1.00098L16.1699 1C16.5654 0.999781 16.957 1.0778 17.3223 1.22949C17.6869 1.38097 18.0183 1.60313 18.2969 1.88281L22.707 6.29297C22.8946 6.4805 23 6.73478 23 7V10Z" fill="#1D1D1F"/>
</svg>
