<svg width="160" height="22" viewBox="0 0 160 22" fill="none" xmlns="http://www.w3.org/2000/svg">
<g clip-path="url(#clip0_logo)">
<path d="M0 16.478C1.32621 18.2665 2.55631 20.1039 3.6807 22C9.53331 20.2017 15.7799 20.2017 21.6325 22L21.7094 21.8827C19.2012 19.6544 17.01 17.1133 15.1841 14.3278C14.348 14.2692 13.5023 14.2399 12.6662 14.2399C8.38008 14.2399 4.10355 14.9924 0.00961019 16.4878" fill="#1D1D1F"/>
<path d="M22.411 22C23.2663 19.9378 24.2273 17.9343 25.2748 15.9991C20.8157 11.7477 17.6924 6.24522 16.2893 0.185695C14.1174 0.136828 11.9167 0.0781875 9.75439 0C11.292 8.69836 15.7704 16.2923 22.411 22Z" fill="#1D1D1F"/>
<path d="M10.0042 13.9565C10.9171 12.5589 11.734 11.1027 12.4547 9.58777L10.0042 13.9565Z" fill="#1D1D1F"/>
<path d="M0.192139 16.0089C3.37311 14.8752 6.65979 14.1911 10.0041 13.9467C10.9171 12.5491 11.734 11.0929 12.4547 9.57802C11.1189 6.7535 10.1387 3.78238 9.53324 0.69397C8.05327 6.52871 4.4975 11.8846 0.192139 16.0089Z" fill="#1D1D1F"/>
<path d="M14.0405 1.0751C14.0405 1.0751 13.954 1.02623 13.9348 0.967588C13.9156 0.889401 13.9541 0.80144 14.0309 0.781893C14.2039 0.733026 14.3769 0.684159 14.5403 0.635292C14.6172 0.615745 14.694 0.664612 14.7133 0.742799C14.7325 0.820987 14.694 0.899174 14.6172 0.928495C14.4442 0.977362 14.2712 1.02623 14.1078 1.0751C14.079 1.0751 14.0598 1.0751 14.0309 1.0751" fill="white"/>
<path d="M13.7811 3.35234C13.733 3.34257 13.6946 3.30348 13.6753 3.24484C13.6465 3.16665 13.685 3.07869 13.7618 3.04937C14.3577 2.84413 14.9631 2.64866 15.5589 2.44342C15.6358 2.41409 15.7127 2.46296 15.7415 2.54115C15.7704 2.61934 15.7319 2.69752 15.655 2.72684C15.0592 2.93209 14.4538 3.13733 13.8579 3.34257C13.8291 3.34257 13.8099 3.34257 13.7811 3.34257" fill="white"/>
<path d="M15.3475 5.00406C15.2994 5.00406 15.2514 4.96497 15.2322 4.90633C15.2033 4.82814 15.2322 4.74018 15.309 4.71086C15.4724 4.64244 15.6358 4.5838 15.8088 4.51539C15.8857 4.48607 15.9625 4.51539 15.9914 4.60335C16.0202 4.68154 15.9914 4.75973 15.9145 4.78905C15.7511 4.85746 15.5877 4.92587 15.4244 4.99429C15.4051 4.99429 15.3763 5.00406 15.3475 4.99429" fill="white"/>
<path d="M16.1548 6.90011C16.1067 6.90011 16.0587 6.86101 16.0394 6.81215C16.001 6.73396 16.0394 6.646 16.1067 6.61668C16.2701 6.53849 16.4335 6.47008 16.5872 6.39189C16.6545 6.36257 16.741 6.39189 16.7794 6.47008C16.8083 6.54826 16.7794 6.62645 16.7122 6.66555C16.5488 6.74373 16.395 6.81215 16.2316 6.89034C16.2124 6.90011 16.1836 6.90011 16.1548 6.90011Z" fill="white"/>
<path d="M17.0484 8.74728C17.0003 8.74728 16.9523 8.71796 16.9235 8.66909C16.885 8.60067 16.9139 8.50294 16.9811 8.47362C17.1349 8.38566 17.2983 8.30747 17.452 8.21951C17.5193 8.18042 17.6058 8.21951 17.6442 8.28792C17.6827 8.35634 17.6538 8.4443 17.5866 8.48339C17.4328 8.57135 17.2694 8.64954 17.1157 8.7375C17.0964 8.74728 17.0676 8.75705 17.0484 8.75705" fill="white"/>
<path d="M14.3289 2.07199C14.3289 2.07199 14.2424 2.02312 14.2232 1.96448C14.2039 1.8863 14.2424 1.79833 14.3193 1.77879C14.4922 1.72992 14.6556 1.67128 14.8286 1.62241C14.9055 1.60287 14.9824 1.64196 15.0016 1.72015C15.0208 1.79833 14.9824 1.87652 14.9055 1.90584C14.7325 1.95471 14.5691 2.01335 14.3961 2.06222C14.3673 2.06222 14.3481 2.06222 14.3193 2.06222" fill="white"/>
<path d="M14.9822 4.03648C14.9342 4.03648 14.8958 3.98762 14.8765 3.93875C14.8477 3.86056 14.8765 3.7726 14.963 3.74328C15.1264 3.68464 15.2994 3.626 15.4628 3.55759C15.5396 3.52827 15.6165 3.56736 15.6454 3.64555C15.6742 3.72373 15.6453 3.80192 15.5589 3.83124C15.3955 3.88988 15.2225 3.9583 15.0591 4.01694C15.0303 4.01694 15.0111 4.02671 14.9822 4.01694" fill="white"/>
<path d="M15.7319 5.95198C15.6839 5.95198 15.6358 5.91289 15.6166 5.86402C15.5878 5.78583 15.6166 5.69787 15.6839 5.66855C15.8472 5.60014 16.0106 5.53172 16.174 5.45354C16.2413 5.42422 16.3278 5.45354 16.3566 5.53172C16.3854 5.60991 16.3566 5.6881 16.2893 5.72719C16.1259 5.79561 15.9626 5.87379 15.7992 5.94221C15.78 5.95198 15.7511 5.95198 15.7223 5.95198" fill="white"/>
<path d="M15.7703 8.23898C15.7222 8.23898 15.6742 8.19988 15.6454 8.15102C15.6069 8.07283 15.6454 7.98487 15.703 7.94578C16.27 7.66235 16.837 7.37892 17.404 7.09549C17.4713 7.05639 17.5578 7.09549 17.5962 7.1639C17.6347 7.23231 17.5962 7.32028 17.529 7.35937C16.962 7.6428 16.3949 7.936 15.8279 8.21943C15.8087 8.2292 15.7799 8.23898 15.7511 8.2292" fill="white"/>
<path d="M17.5386 9.64636C17.4905 9.64636 17.4425 9.61704 17.4136 9.56818C17.3752 9.49976 17.3944 9.40203 17.4617 9.36294C17.6154 9.27497 17.7692 9.18701 17.923 9.09905C17.9902 9.05996 18.0767 9.08928 18.1152 9.15769C18.1536 9.22611 18.1344 9.31407 18.0671 9.35316C17.9134 9.44112 17.7596 9.52908 17.6058 9.61704C17.5866 9.62682 17.5578 9.63659 17.5386 9.63659" fill="white"/>
<path d="M18.0481 10.5358C18 10.5358 17.952 10.5064 17.9232 10.4576C17.8847 10.3891 17.9039 10.2914 17.9712 10.2523C18.125 10.1644 18.2787 10.0666 18.4325 9.97867C18.4998 9.93957 18.5863 9.95912 18.6247 10.0275C18.6631 10.0959 18.6439 10.1839 18.5766 10.223C18.4229 10.311 18.2691 10.4087 18.125 10.4967C18.1058 10.5064 18.0769 10.5162 18.0577 10.5162" fill="white"/>
<path d="M18.3844 12.7935C18.3364 12.7935 18.2883 12.7739 18.2499 12.7251C18.2018 12.6566 18.2211 12.5589 18.2787 12.5198C18.8073 12.1582 19.3262 11.8064 19.8548 11.4447C19.9221 11.4056 20.0086 11.4154 20.047 11.4838C20.095 11.5522 20.0758 11.6402 20.0086 11.6891C19.4896 12.0507 18.961 12.4123 18.4421 12.7739C18.4229 12.7837 18.394 12.7935 18.3748 12.7935" fill="white"/>
<path d="M20.3257 13.9565C20.2777 13.9565 20.2296 13.937 20.1912 13.8979C20.1431 13.8295 20.1527 13.7415 20.2104 13.6926C20.3545 13.5851 20.4987 13.4776 20.6332 13.3701C20.7005 13.3212 20.787 13.3408 20.835 13.3994C20.8831 13.4678 20.8735 13.5558 20.8062 13.6047C20.6621 13.7122 20.5275 13.8197 20.3834 13.9272C20.3641 13.9467 20.3353 13.9565 20.3161 13.9565" fill="white"/>
<path d="M21.594 15.5594C21.546 15.5594 21.4979 15.5496 21.4595 15.5105C21.4114 15.4421 21.4114 15.3541 21.4691 15.3052C21.6036 15.188 21.7382 15.0707 21.8727 14.9632C21.9304 14.9143 22.0265 14.9241 22.0745 14.9827C22.1226 15.0414 22.1226 15.1391 22.0649 15.188C21.9304 15.3052 21.7958 15.4225 21.6613 15.5398C21.6421 15.5594 21.6229 15.5691 21.594 15.5691" fill="white"/>
<path d="M22.9493 17.1035C22.9012 17.1035 22.8436 17.1035 22.8147 17.0546C22.7571 16.996 22.7571 16.8983 22.8147 16.8494C22.9493 16.7223 23.0742 16.6051 23.1991 16.478C23.2568 16.4194 23.3433 16.4291 23.401 16.4878C23.4586 16.5464 23.4586 16.6441 23.401 16.693C23.276 16.8201 23.1415 16.9373 23.0165 17.0644C22.9973 17.0839 22.9781 17.0937 22.9493 17.1035Z" fill="white"/>
<path d="M18.5862 11.4154C18.5381 11.4154 18.4901 11.3958 18.4613 11.347C18.4132 11.2786 18.4324 11.1808 18.4997 11.1417C18.6535 11.044 18.7976 10.9463 18.9514 10.8583C19.0187 10.8192 19.1051 10.8388 19.1436 10.9072C19.182 10.9756 19.1724 11.0635 19.1051 11.1124C18.9514 11.2101 18.8072 11.3079 18.6535 11.4056C18.6342 11.4154 18.6054 11.4252 18.5862 11.4252" fill="white"/>
<path d="M19.7202 13.1258C19.6722 13.1258 19.6241 13.1062 19.5857 13.0573C19.5376 12.9889 19.5473 12.901 19.6145 12.8521L20.047 12.5394C20.1143 12.4905 20.2007 12.51 20.2488 12.5784C20.2969 12.6469 20.2776 12.7348 20.22 12.7837C20.0758 12.8912 19.9317 12.9889 19.7875 13.0964C19.7683 13.116 19.7395 13.116 19.7202 13.1258Z" fill="white"/>
<path d="M20.9502 14.7677C20.9022 14.7677 20.8541 14.7579 20.8157 14.7091C20.7676 14.6407 20.7772 14.5527 20.8349 14.5038L21.2481 14.1715C21.3058 14.1227 21.4019 14.1324 21.45 14.2009C21.498 14.2693 21.4884 14.3572 21.4307 14.4061C21.2962 14.5234 21.152 14.6309 21.0175 14.7482C20.9983 14.7677 20.9694 14.7775 20.9502 14.7775" fill="white"/>
<path d="M21.5846 16.9667C21.5366 16.9667 21.4789 16.9667 21.4405 16.9178C21.3828 16.8494 21.3828 16.7614 21.4405 16.7028C21.9114 16.2728 22.3919 15.8525 22.8628 15.4225C22.9204 15.3736 23.0069 15.3736 23.0646 15.4322C23.1222 15.4909 23.1126 15.5789 23.0646 15.6375C22.5937 16.0675 22.1228 16.4976 21.6519 16.9276C21.6327 16.9471 21.6134 16.9569 21.5846 16.9569" fill="white"/>
<path d="M23.6603 17.8561C23.6122 17.8659 23.5546 17.8561 23.5161 17.817C23.4585 17.7583 23.4585 17.6606 23.5161 17.6117C23.6411 17.4847 23.766 17.3576 23.8909 17.2306C23.9486 17.1719 24.0351 17.1817 24.0928 17.2306C24.1504 17.2892 24.1504 17.3772 24.0928 17.4358C23.9678 17.5629 23.8429 17.6899 23.718 17.817C23.6987 17.8365 23.6795 17.8463 23.6507 17.8561" fill="white"/>
<path d="M35.6633 7.92624H32.5688V5.82495H40.997V7.92624H37.9025V16.175H35.6633V7.92624Z" fill="#1D1D1F"/>
<path d="M44.4761 5.82495H49.1274C50.4152 5.82495 51.405 6.17679 52.097 6.87071C52.6832 7.46689 52.9715 8.24876 52.9715 9.23588V9.2652C52.9715 10.1057 52.7697 10.7801 52.366 11.3078C51.9624 11.8356 51.4338 12.2168 50.79 12.4709L53.279 16.1652H50.665L48.4835 12.852H46.7249V16.1652H44.4857V5.82495H44.4761ZM48.9833 10.8485C49.531 10.8485 49.9635 10.7117 50.2518 10.4478C50.5497 10.1839 50.6939 9.83206 50.6939 9.38248V9.35316C50.6939 8.86449 50.5401 8.4931 50.2326 8.24876C49.9251 8.00443 49.4926 7.87737 48.9352 7.87737H46.7152V10.8485H48.9833Z" fill="#1D1D1F"/>
<path d="M59.122 5.82495H56.8828V16.175H59.122V5.82495Z" fill="#1D1D1F"/>
<path d="M63.4849 5.82495H67.6461C68.2515 5.82495 68.7993 5.91291 69.2798 6.07906C69.7603 6.25498 70.1639 6.49932 70.5003 6.81207C70.8367 7.12482 71.0865 7.50598 71.2691 7.94579C71.4517 8.38559 71.5382 8.87426 71.5382 9.40203V9.43135C71.5382 10.0373 71.4325 10.5651 71.2211 11.0146C71.0096 11.4642 70.7117 11.8454 70.3369 12.1581C69.9621 12.4611 69.5297 12.6957 69.0299 12.8423C68.5302 12.9987 67.992 13.0768 67.425 13.0768H65.724V16.1848H63.4849V5.82495ZM67.5019 11.044C68.0593 11.044 68.5014 10.8974 68.8089 10.5944C69.1164 10.2914 69.2702 9.92002 69.2702 9.48022V9.4509C69.2702 8.94268 69.1068 8.55174 68.7801 8.27808C68.4533 8.0142 68.0113 7.87737 67.4539 7.87737H65.724V11.044H67.5019Z" fill="#1D1D1F"/>
<path d="M74.6904 5.82495H76.9296V14.1226H80.1971V16.175H74.6904V5.82495Z" fill="#1D1D1F"/>
<path d="M83.5317 5.82495H89.8649V7.84805H85.7421V9.94934H89.2114V11.9724H85.7421V14.1519H89.9417V16.175H83.5317V5.82495Z" fill="#1D1D1F"/>
<path d="M98.5908 5.89331H103.127C104.405 5.89331 105.414 6.27447 106.068 6.92929C106.606 7.48638 106.913 8.25848 106.913 9.15764V9.18696C106.913 10.8875 105.914 11.904 104.482 12.3242L107.23 16.2434H105.126L102.627 12.637H100.388V16.2434H98.6004V5.89331H98.5908ZM103.002 11.0244C104.28 11.0244 105.097 10.3402 105.097 9.29447V9.26514C105.097 8.15097 104.309 7.54502 102.992 7.54502H100.388V11.0244H103.002Z" fill="#A3AEFF"/>
<path d="M109.691 5.89331H115.985V7.5157H111.478V10.2034H115.332V11.8258H111.478V14.6014H116.062V16.2238H109.691V5.89331Z" fill="#A3AEFF"/>
<path d="M118.763 5.89331H122.78C125.153 5.89331 126.643 7.27136 126.643 9.35311V9.38243C126.643 11.7085 124.808 12.9204 122.568 12.9204H120.55V16.2434H118.763V5.89331ZM122.626 11.2785C123.981 11.2785 124.827 10.5064 124.827 9.43129V9.40197C124.827 8.19007 123.971 7.55479 122.626 7.55479H120.55V11.2785H122.626Z" fill="#A3AEFF"/>
<path d="M128.604 11.1026V11.0732C128.604 8.16077 130.814 5.71741 133.937 5.71741C137.06 5.71741 139.242 8.13145 139.242 11.0439V11.0732C139.242 13.9857 137.032 16.4291 133.908 16.4291C130.785 16.4291 128.604 14.0151 128.604 11.1026ZM137.378 11.1026V11.0732C137.378 9.05992 135.936 7.38866 133.918 7.38866C131.9 7.38866 130.487 9.0306 130.487 11.0439V11.0732C130.487 13.0866 131.929 14.7578 133.947 14.7578C135.965 14.7578 137.378 13.1159 137.378 11.1026Z" fill="#A3AEFF"/>
<path d="M141.414 5.89331H145.95C147.228 5.89331 148.237 6.27447 148.891 6.92929C149.429 7.48638 149.736 8.25848 149.736 9.15764V9.18696C149.736 10.8875 148.737 11.904 147.305 12.3242L150.053 16.2434H147.949L145.45 12.637H143.211V16.2434H141.423V5.89331H141.414ZM145.825 11.0244C147.103 11.0244 147.92 10.3402 147.92 9.29447V9.26514C147.92 8.15097 147.132 7.54502 145.815 7.54502H143.211V11.0244H145.825Z" fill="#A3AEFF"/>
<path d="M154.964 7.58411H151.735V5.90308H159.99V7.58411H156.761V16.2531H154.955V7.58411H154.964Z" fill="#A3AEFF"/>
</g>
<defs>
<clipPath id="clip0_logo"><rect width="160" height="22" fill="white"/></clipPath>
</defs>
</svg>
